STARTFONT 2.1
COMMENT Copyright (C) 1994-1995 Cronyx Ltd.
COMMENT Changes Copyright (C) 1996-1997 by Andrey A. Chernov, Moscow, Russia.
COMMENT Designed by Serge Vakulenko, <vak@cronyx.ru>
COMMENT Changes 1999 by Serge Winitzki.
COMMENT This software may be used, modified, copied, distributed, and sold,
COMMENT in both source and binary form provided that the copyright
COMMENT and these terms are retained. Under no circumstances is the author
COMMENT responsible for the proper functioning of this software, nor does
COMMENT the author assume any responsibility for damages incurred with its use.
COMMENT $XFree86$
FONT -Cronyx-Nil-Medium-R-Normal--2-20-75-75-C-10-KOI8-R
SIZE 2 75 75
FONTBOUNDINGBOX 2 2 0 -1
STARTPROPERTIES 21
FONT_DESCENT 1
FONT_ASCENT 1
FONTNAME_REGISTRY ""
FOUNDRY "Cronyx"
FAMILY_NAME "Fixed"
WEIGHT_NAME "Medium"
SLANT "R"
SETWIDTH_NAME "Normal"
ADD_STYLE_NAME ""
AVERAGE_WIDTH 10
CHARSET_REGISTRY "KOI8"
CHARSET_ENCODING "R"
PIXEL_SIZE 2
POINT_SIZE 20
RESOLUTION_X 75
RESOLUTION_Y 75
DEFAULT_CHAR 32
SPACING "C"
COPYRIGHT "Copyright (C) 1994 Cronyx Ltd., Portions Copyright (C) 1996-1997 by Andrey A. Chernov, Moscow, Russia."
_XMBDFED_INFO "Edited with xmbdfed 2.7."
_XFREE86_GLYPH_RANGES "0_255"
ENDPROPERTIES
CHARS 256
STARTCHAR C000
ENCODING 0
SWIDTH 960 0
DWIDTH 2 0
BBX 0 0 0 0
BITMAP
ENDCHAR
STARTCHAR uni25C6
ENCODING 1
SWIDTH 960 0
DWIDTH 2 0
BBX 2 1 0 -1
BITMAP
80
ENDCHAR
STARTCHAR shade
ENCODING 2
SWIDTH 960 0
DWIDTH 2 0
BBX 2 2 0 -1
BITMAP
80
80
ENDCHAR
STARTCHAR uni2409
ENCODING 3
SWIDTH 960 0
DWIDTH 2 0
BBX 2 2 0 -1
BITMAP
80
80
ENDCHAR
STARTCHAR uni240C
ENCODING 4
SWIDTH 960 0
DWIDTH 2 0
BBX 2 2 0 -1
BITMAP
80
80
ENDCHAR
STARTCHAR uni240D
ENCODING 5
SWIDTH 960 0
DWIDTH 2 0
BBX 2 2 0 -1
BITMAP
80
80
ENDCHAR
STARTCHAR uni240A
ENCODING 6
SWIDTH 960 0
DWIDTH 2 0
BBX 2 2 0 -1
BITMAP
80
80
ENDCHAR
STARTCHAR degree
ENCODING 7
SWIDTH 960 0
DWIDTH 2 0
BBX 2 1 0 0
BITMAP
80
ENDCHAR
STARTCHAR plusminus
ENCODING 8
SWIDTH 960 0
DWIDTH 2 0
BBX 2 1 0 -1
BITMAP
80
ENDCHAR
STARTCHAR uni2424
ENCODING 9
SWIDTH 960 0
DWIDTH 2 0
BBX 2 2 0 -1
BITMAP
80
80
ENDCHAR
STARTCHAR uni240B
ENCODING 10
SWIDTH 960 0
DWIDTH 2 0
BBX 2 2 0 -1
BITMAP
80
80
ENDCHAR
STARTCHAR SF040000
ENCODING 11
SWIDTH 960 0
DWIDTH 2 0
BBX 2 2 0 -1
BITMAP
80
80
ENDCHAR
STARTCHAR SF030000
ENCODING 12
SWIDTH 960 0
DWIDTH 2 0
BBX 2 1 0 -1
BITMAP
80
ENDCHAR
STARTCHAR SF010000
ENCODING 13
SWIDTH 960 0
DWIDTH 2 0
BBX 2 1 0 -1
BITMAP
80
ENDCHAR
STARTCHAR SF020000
ENCODING 14
SWIDTH 960 0
DWIDTH 2 0
BBX 2 2 0 -1
BITMAP
80
80
ENDCHAR
STARTCHAR SF050000
ENCODING 15
SWIDTH 960 0
DWIDTH 2 0
BBX 2 2 0 -1
BITMAP
80
80
ENDCHAR
STARTCHAR char16
ENCODING 16
SWIDTH 960 0
DWIDTH 2 0
BBX 2 1 0 0
BITMAP
80
ENDCHAR
STARTCHAR char17
ENCODING 17
SWIDTH 960 0
DWIDTH 2 0
BBX 2 1 0 0
BITMAP
80
ENDCHAR
STARTCHAR char18
ENCODING 18
SWIDTH 960 0
DWIDTH 2 0
BBX 2 1 0 -1
BITMAP
80
ENDCHAR
STARTCHAR char19
ENCODING 19
SWIDTH 960 0
DWIDTH 2 0
BBX 2 1 0 -1
BITMAP
80
ENDCHAR
STARTCHAR char20
ENCODING 20
SWIDTH 960 0
DWIDTH 2 0
BBX 2 1 0 -1
BITMAP
80
ENDCHAR
STARTCHAR SF080000
ENCODING 21
SWIDTH 960 0
DWIDTH 2 0
BBX 2 2 0 -1
BITMAP
80
80
ENDCHAR
STARTCHAR SF090000
ENCODING 22
SWIDTH 960 0
DWIDTH 2 0
BBX 2 2 0 -1
BITMAP
80
80
ENDCHAR
STARTCHAR SF070000
ENCODING 23
SWIDTH 960 0
DWIDTH 2 0
BBX 2 2 0 -1
BITMAP
80
80
ENDCHAR
STARTCHAR SF060000
ENCODING 24
SWIDTH 960 0
DWIDTH 2 0
BBX 2 1 0 -1
BITMAP
80
ENDCHAR
STARTCHAR SF110000
ENCODING 25
SWIDTH 960 0
DWIDTH 2 0
BBX 2 2 0 -1
BITMAP
80
80
ENDCHAR
STARTCHAR lessequal
ENCODING 26
SWIDTH 960 0
DWIDTH 2 0
BBX 2 1 0 -1
BITMAP
80
ENDCHAR
STARTCHAR greaterequal
ENCODING 27
SWIDTH 960 0
DWIDTH 2 0
BBX 2 1 0 -1
BITMAP
80
ENDCHAR
STARTCHAR pi
ENCODING 28
SWIDTH 960 0
DWIDTH 2 0
BBX 2 1 0 -1
BITMAP
80
ENDCHAR
STARTCHAR notequal
ENCODING 29
SWIDTH 960 0
DWIDTH 2 0
BBX 2 1 0 -1
BITMAP
80
ENDCHAR
STARTCHAR currency
ENCODING 30
SWIDTH 960 0
DWIDTH 2 0
BBX 2 1 0 -1
BITMAP
80
ENDCHAR
STARTCHAR twosuperior
ENCODING 31
SWIDTH 960 0
DWIDTH 2 0
BBX 2 1 0 -1
BITMAP
80
ENDCHAR
STARTCHAR space
ENCODING 32
SWIDTH 960 0
DWIDTH 2 0
BBX 0 0 0 0
BITMAP
ENDCHAR
STARTCHAR exclam
ENCODING 33
SWIDTH 960 0
DWIDTH 2 0
BBX 2 2 0 -1
BITMAP
80
80
ENDCHAR
STARTCHAR quotedbl
ENCODING 34
SWIDTH 960 0
DWIDTH 2 0
BBX 2 1 0 0
BITMAP
80
ENDCHAR
STARTCHAR numbersign
ENCODING 35
SWIDTH 960 0
DWIDTH 2 0
BBX 2 2 0 -1
BITMAP
80
80
ENDCHAR
STARTCHAR dollar
ENCODING 36
SWIDTH 960 0
DWIDTH 2 0
BBX 2 2 0 -1
BITMAP
80
80
ENDCHAR
STARTCHAR percent
ENCODING 37
SWIDTH 960 0
DWIDTH 2 0
BBX 2 2 0 -1
BITMAP
80
80
ENDCHAR
STARTCHAR ampersand
ENCODING 38
SWIDTH 960 0
DWIDTH 2 0
BBX 2 2 0 -1
BITMAP
80
80
ENDCHAR
STARTCHAR quotesingle
ENCODING 39
SWIDTH 960 0
DWIDTH 2 0
BBX 2 1 0 0
BITMAP
80
ENDCHAR
STARTCHAR parenleft
ENCODING 40
SWIDTH 960 0
DWIDTH 2 0
BBX 2 2 0 -1
BITMAP
80
80
ENDCHAR
STARTCHAR parenright
ENCODING 41
SWIDTH 960 0
DWIDTH 2 0
BBX 2 2 0 -1
BITMAP
80
80
ENDCHAR
STARTCHAR asterisk
ENCODING 42
SWIDTH 960 0
DWIDTH 2 0
BBX 2 1 0 -1
BITMAP
80
ENDCHAR
STARTCHAR plus
ENCODING 43
SWIDTH 960 0
DWIDTH 2 0
BBX 2 1 0 -1
BITMAP
80
ENDCHAR
STARTCHAR comma
ENCODING 44
SWIDTH 960 0
DWIDTH 2 0
BBX 2 1 0 -1
BITMAP
80
ENDCHAR
STARTCHAR hyphen
ENCODING 45
SWIDTH 960 0
DWIDTH 2 0
BBX 2 1 0 -1
BITMAP
80
ENDCHAR
STARTCHAR period
ENCODING 46
SWIDTH 960 0
DWIDTH 2 0
BBX 2 1 0 -1
BITMAP
80
ENDCHAR
STARTCHAR slash
ENCODING 47
SWIDTH 960 0
DWIDTH 2 0
BBX 2 2 0 -1
BITMAP
80
80
ENDCHAR
STARTCHAR zero
ENCODING 48
SWIDTH 960 0
DWIDTH 2 0
BBX 2 2 0 -1
BITMAP
80
80
ENDCHAR
STARTCHAR one
ENCODING 49
SWIDTH 960 0
DWIDTH 2 0
BBX 2 2 0 -1
BITMAP
80
80
ENDCHAR
STARTCHAR two
ENCODING 50
SWIDTH 960 0
DWIDTH 2 0
BBX 2 2 0 -1
BITMAP
80
80
ENDCHAR
STARTCHAR three
ENCODING 51
SWIDTH 960 0
DWIDTH 2 0
BBX 2 2 0 -1
BITMAP
80
80
ENDCHAR
STARTCHAR four
ENCODING 52
SWIDTH 960 0
DWIDTH 2 0
BBX 2 2 0 -1
BITMAP
80
80
ENDCHAR
STARTCHAR five
ENCODING 53
SWIDTH 960 0
DWIDTH 2 0
BBX 2 2 0 -1
BITMAP
80
80
ENDCHAR
STARTCHAR six
ENCODING 54
SWIDTH 960 0
DWIDTH 2 0
BBX 2 2 0 -1
BITMAP
80
80
ENDCHAR
STARTCHAR seven
ENCODING 55
SWIDTH 960 0
DWIDTH 2 0
BBX 2 2 0 -1
BITMAP
80
80
ENDCHAR
STARTCHAR eight
ENCODING 56
SWIDTH 960 0
DWIDTH 2 0
BBX 2 2 0 -1
BITMAP
80
80
ENDCHAR
STARTCHAR nine
ENCODING 57
SWIDTH 960 0
DWIDTH 2 0
BBX 2 2 0 -1
BITMAP
80
80
ENDCHAR
STARTCHAR colon
ENCODING 58
SWIDTH 960 0
DWIDTH 2 0
BBX 2 2 0 -1
BITMAP
80
80
ENDCHAR
STARTCHAR semicolon
ENCODING 59
SWIDTH 960 0
DWIDTH 2 0
BBX 2 2 0 -1
BITMAP
80
80
ENDCHAR
STARTCHAR less
ENCODING 60
SWIDTH 960 0
DWIDTH 2 0
BBX 2 2 0 -1
BITMAP
80
80
ENDCHAR
STARTCHAR equal
ENCODING 61
SWIDTH 960 0
DWIDTH 2 0
BBX 2 2 0 -1
BITMAP
80
80
ENDCHAR
STARTCHAR greater
ENCODING 62
SWIDTH 960 0
DWIDTH 2 0
BBX 2 2 0 -1
BITMAP
80
80
ENDCHAR
STARTCHAR question
ENCODING 63
SWIDTH 960 0
DWIDTH 2 0
BBX 2 2 0 -1
BITMAP
80
80
ENDCHAR
STARTCHAR at
ENCODING 64
SWIDTH 960 0
DWIDTH 2 0
BBX 2 2 0 -1
BITMAP
80
80
ENDCHAR
STARTCHAR A
ENCODING 65
SWIDTH 960 0
DWIDTH 2 0
BBX 2 1 0 0
BITMAP
80
ENDCHAR
STARTCHAR B
ENCODING 66
SWIDTH 960 0
DWIDTH 2 0
BBX 0 0 0 0
BITMAP
ENDCHAR
STARTCHAR C
ENCODING 67
SWIDTH 960 0
DWIDTH 2 0
BBX 0 0 0 0
BITMAP
ENDCHAR
STARTCHAR D
ENCODING 68
SWIDTH 960 0
DWIDTH 2 0
BBX 0 0 0 0
BITMAP
ENDCHAR
STARTCHAR E
ENCODING 69
SWIDTH 960 0
DWIDTH 2 0
BBX 0 0 0 0
BITMAP
ENDCHAR
STARTCHAR F
ENCODING 70
SWIDTH 960 0
DWIDTH 2 0
BBX 2 2 0 -1
BITMAP
80
80
ENDCHAR
STARTCHAR G
ENCODING 71
SWIDTH 960 0
DWIDTH 2 0
BBX 2 2 0 -1
BITMAP
80
80
ENDCHAR
STARTCHAR H
ENCODING 72
SWIDTH 960 0
DWIDTH 2 0
BBX 2 2 0 -1
BITMAP
80
80
ENDCHAR
STARTCHAR I
ENCODING 73
SWIDTH 960 0
DWIDTH 2 0
BBX 2 2 0 -1
BITMAP
80
80
ENDCHAR
STARTCHAR J
ENCODING 74
SWIDTH 960 0
DWIDTH 2 0
BBX 2 2 0 -1
BITMAP
80
80
ENDCHAR
STARTCHAR K
ENCODING 75
SWIDTH 960 0
DWIDTH 2 0
BBX 2 2 0 -1
BITMAP
80
80
ENDCHAR
STARTCHAR L
ENCODING 76
SWIDTH 960 0
DWIDTH 2 0
BBX 2 2 0 -1
BITMAP
80
80
ENDCHAR
STARTCHAR M
ENCODING 77
SWIDTH 960 0
DWIDTH 2 0
BBX 2 2 0 -1
BITMAP
80
80
ENDCHAR
STARTCHAR N
ENCODING 78
SWIDTH 960 0
DWIDTH 2 0
BBX 2 2 0 -1
BITMAP
80
80
ENDCHAR
STARTCHAR O
ENCODING 79
SWIDTH 960 0
DWIDTH 2 0
BBX 2 2 0 -1
BITMAP
80
80
ENDCHAR
STARTCHAR P
ENCODING 80
SWIDTH 960 0
DWIDTH 2 0
BBX 2 2 0 -1
BITMAP
80
80
ENDCHAR
STARTCHAR Q
ENCODING 81
SWIDTH 960 0
DWIDTH 2 0
BBX 2 2 0 -1
BITMAP
80
80
ENDCHAR
STARTCHAR R
ENCODING 82
SWIDTH 960 0
DWIDTH 2 0
BBX 2 2 0 -1
BITMAP
80
80
ENDCHAR
STARTCHAR S
ENCODING 83
SWIDTH 960 0
DWIDTH 2 0
BBX 2 2 0 -1
BITMAP
80
80
ENDCHAR
STARTCHAR T
ENCODING 84
SWIDTH 960 0
DWIDTH 2 0
BBX 2 2 0 -1
BITMAP
80
80
ENDCHAR
STARTCHAR U
ENCODING 85
SWIDTH 960 0
DWIDTH 2 0
BBX 2 2 0 -1
BITMAP
80
80
ENDCHAR
STARTCHAR V
ENCODING 86
SWIDTH 960 0
DWIDTH 2 0
BBX 2 2 0 -1
BITMAP
80
80
ENDCHAR
STARTCHAR W
ENCODING 87
SWIDTH 960 0
DWIDTH 2 0
BBX 2 2 0 -1
BITMAP
80
80
ENDCHAR
STARTCHAR X
ENCODING 88
SWIDTH 960 0
DWIDTH 2 0
BBX 2 2 0 -1
BITMAP
80
80
ENDCHAR
STARTCHAR Y
ENCODING 89
SWIDTH 960 0
DWIDTH 2 0
BBX 2 2 0 -1
BITMAP
80
80
ENDCHAR
STARTCHAR Z
ENCODING 90
SWIDTH 960 0
DWIDTH 2 0
BBX 2 2 0 -1
BITMAP
80
80
ENDCHAR
STARTCHAR bracketleft
ENCODING 91
SWIDTH 960 0
DWIDTH 2 0
BBX 2 2 0 -1
BITMAP
80
80
ENDCHAR
STARTCHAR backslash
ENCODING 92
SWIDTH 960 0
DWIDTH 2 0
BBX 2 2 0 -1
BITMAP
80
80
ENDCHAR
STARTCHAR bracketright
ENCODING 93
SWIDTH 960 0
DWIDTH 2 0
BBX 2 2 0 -1
BITMAP
80
80
ENDCHAR
STARTCHAR asciicircum
ENCODING 94
SWIDTH 960 0
DWIDTH 2 0
BBX 2 1 0 0
BITMAP
80
ENDCHAR
STARTCHAR underscore
ENCODING 95
SWIDTH 960 0
DWIDTH 2 0
BBX 2 1 0 -1
BITMAP
80
ENDCHAR
STARTCHAR grave
ENCODING 96
SWIDTH 960 0
DWIDTH 2 0
BBX 2 1 0 0
BITMAP
80
ENDCHAR
STARTCHAR a
ENCODING 97
SWIDTH 960 0
DWIDTH 2 0
BBX 2 1 0 -1
BITMAP
80
ENDCHAR
STARTCHAR b
ENCODING 98
SWIDTH 960 0
DWIDTH 2 0
BBX 2 1 0 -1
BITMAP
80
ENDCHAR
STARTCHAR c
ENCODING 99
SWIDTH 960 0
DWIDTH 2 0
BBX 2 1 0 -1
BITMAP
80
ENDCHAR
STARTCHAR d
ENCODING 100
SWIDTH 960 0
DWIDTH 2 0
BBX 2 1 0 -1
BITMAP
80
ENDCHAR
STARTCHAR e
ENCODING 101
SWIDTH 960 0
DWIDTH 2 0
BBX 2 1 0 -1
BITMAP
80
ENDCHAR
STARTCHAR f
ENCODING 102
SWIDTH 960 0
DWIDTH 2 0
BBX 2 1 0 -1
BITMAP
80
ENDCHAR
STARTCHAR g
ENCODING 103
SWIDTH 960 0
DWIDTH 2 0
BBX 2 1 0 -1
BITMAP
80
ENDCHAR
STARTCHAR h
ENCODING 104
SWIDTH 960 0
DWIDTH 2 0
BBX 2 1 0 -1
BITMAP
80
ENDCHAR
STARTCHAR i
ENCODING 105
SWIDTH 960 0
DWIDTH 2 0
BBX 2 1 0 -1
BITMAP
80
ENDCHAR
STARTCHAR j
ENCODING 106
SWIDTH 960 0
DWIDTH 2 0
BBX 2 1 0 -1
BITMAP
80
ENDCHAR
STARTCHAR k
ENCODING 107
SWIDTH 960 0
DWIDTH 2 0
BBX 2 1 0 -1
BITMAP
80
ENDCHAR
STARTCHAR l
ENCODING 108
SWIDTH 960 0
DWIDTH 2 0
BBX 2 1 0 -1
BITMAP
80
ENDCHAR
STARTCHAR m
ENCODING 109
SWIDTH 960 0
DWIDTH 2 0
BBX 2 1 0 -1
BITMAP
80
ENDCHAR
STARTCHAR n
ENCODING 110
SWIDTH 960 0
DWIDTH 2 0
BBX 2 1 0 -1
BITMAP
80
ENDCHAR
STARTCHAR o
ENCODING 111
SWIDTH 960 0
DWIDTH 2 0
BBX 2 1 0 -1
BITMAP
80
ENDCHAR
STARTCHAR p
ENCODING 112
SWIDTH 960 0
DWIDTH 2 0
BBX 2 1 0 -1
BITMAP
80
ENDCHAR
STARTCHAR q
ENCODING 113
SWIDTH 960 0
DWIDTH 2 0
BBX 2 1 0 -1
BITMAP
80
ENDCHAR
STARTCHAR r
ENCODING 114
SWIDTH 960 0
DWIDTH 2 0
BBX 2 1 0 -1
BITMAP
80
ENDCHAR
STARTCHAR s
ENCODING 115
SWIDTH 960 0
DWIDTH 2 0
BBX 2 1 0 -1
BITMAP
80
ENDCHAR
STARTCHAR t
ENCODING 116
SWIDTH 960 0
DWIDTH 2 0
BBX 2 1 0 -1
BITMAP
80
ENDCHAR
STARTCHAR u
ENCODING 117
SWIDTH 960 0
DWIDTH 2 0
BBX 2 1 0 -1
BITMAP
80
ENDCHAR
STARTCHAR v
ENCODING 118
SWIDTH 960 0
DWIDTH 2 0
BBX 2 1 0 -1
BITMAP
80
ENDCHAR
STARTCHAR w
ENCODING 119
SWIDTH 960 0
DWIDTH 2 0
BBX 2 1 0 -1
BITMAP
80
ENDCHAR
STARTCHAR x
ENCODING 120
SWIDTH 960 0
DWIDTH 2 0
BBX 2 1 0 -1
BITMAP
80
ENDCHAR
STARTCHAR y
ENCODING 121
SWIDTH 960 0
DWIDTH 2 0
BBX 2 1 0 -1
BITMAP
80
ENDCHAR
STARTCHAR z
ENCODING 122
SWIDTH 960 0
DWIDTH 2 0
BBX 2 1 0 -1
BITMAP
80
ENDCHAR
STARTCHAR braceleft
ENCODING 123
SWIDTH 960 0
DWIDTH 2 0
BBX 2 1 0 -1
BITMAP
80
ENDCHAR
STARTCHAR bar
ENCODING 124
SWIDTH 960 0
DWIDTH 2 0
BBX 2 2 0 -1
BITMAP
80
80
ENDCHAR
STARTCHAR braceright
ENCODING 125
SWIDTH 960 0
DWIDTH 2 0
BBX 2 2 0 -1
BITMAP
80
80
ENDCHAR
STARTCHAR asciitilde
ENCODING 126
SWIDTH 960 0
DWIDTH 2 0
BBX 2 2 0 -1
BITMAP
80
80
ENDCHAR
STARTCHAR del
ENCODING 127
SWIDTH 960 0
DWIDTH 2 0
BBX 0 0 0 0
BITMAP
ENDCHAR
STARTCHAR afii10051
ENCODING 128
SWIDTH 960 0
DWIDTH 2 0
BBX 2 1 0 -1
BITMAP
80
ENDCHAR
STARTCHAR afii10052
ENCODING 129
SWIDTH 960 0
DWIDTH 2 0
BBX 2 2 0 -1
BITMAP
80
80
ENDCHAR
STARTCHAR cedilla
ENCODING 130
SWIDTH 960 0
DWIDTH 2 0
BBX 2 1 0 -1
BITMAP
80
ENDCHAR
STARTCHAR afii10100
ENCODING 131
SWIDTH 960 0
DWIDTH 2 0
BBX 2 1 0 -1
BITMAP
80
ENDCHAR
STARTCHAR quotedblbase
ENCODING 132
SWIDTH 960 0
DWIDTH 2 0
BBX 2 1 0 -1
BITMAP
80
ENDCHAR
STARTCHAR ellipsis
ENCODING 133
SWIDTH 960 0
DWIDTH 2 0
BBX 2 1 0 -1
BITMAP
80
ENDCHAR
STARTCHAR dagger
ENCODING 134
SWIDTH 960 0
DWIDTH 2 0
BBX 2 2 0 -1
BITMAP
80
80
ENDCHAR
STARTCHAR section
ENCODING 135
SWIDTH 960 0
DWIDTH 2 0
BBX 2 2 0 -1
BITMAP
80
80
ENDCHAR
STARTCHAR Euro
ENCODING 136
SWIDTH 960 0
DWIDTH 2 0
BBX 2 1 0 -1
BITMAP
80
ENDCHAR
STARTCHAR dieresis
ENCODING 137
SWIDTH 960 0
DWIDTH 2 0
BBX 2 1 0 -1
BITMAP
80
ENDCHAR
STARTCHAR afii10058
ENCODING 138
SWIDTH 960 0
DWIDTH 2 0
BBX 2 2 0 -1
BITMAP
80
80
ENDCHAR
STARTCHAR guilsinglleft
ENCODING 139
SWIDTH 960 0
DWIDTH 2 0
BBX 2 1 0 -1
BITMAP
80
ENDCHAR
STARTCHAR afii10059
ENCODING 140
SWIDTH 960 0
DWIDTH 2 0
BBX 2 1 0 -1
BITMAP
80
ENDCHAR
STARTCHAR afii10061
ENCODING 141
SWIDTH 960 0
DWIDTH 2 0
BBX 2 2 0 -1
BITMAP
80
80
ENDCHAR
STARTCHAR afii10060
ENCODING 142
SWIDTH 960 0
DWIDTH 2 0
BBX 2 2 0 -1
BITMAP
80
80
ENDCHAR
STARTCHAR afii10145
ENCODING 143
SWIDTH 960 0
DWIDTH 2 0
BBX 2 2 0 -1
BITMAP
80
80
ENDCHAR
STARTCHAR afii10099
ENCODING 144
SWIDTH 960 0
DWIDTH 2 0
BBX 2 2 0 -1
BITMAP
80
80
ENDCHAR
STARTCHAR quoteleft
ENCODING 145
SWIDTH 960 0
DWIDTH 2 0
BBX 2 2 0 -1
BITMAP
80
80
ENDCHAR
STARTCHAR quoteright
ENCODING 146
SWIDTH 960 0
DWIDTH 2 0
BBX 2 2 0 -1
BITMAP
80
80
ENDCHAR
STARTCHAR quotedblleft
ENCODING 147
SWIDTH 960 0
DWIDTH 2 0
BBX 2 2 0 -1
BITMAP
80
80
ENDCHAR
STARTCHAR quotedblright
ENCODING 148
SWIDTH 960 0
DWIDTH 2 0
BBX 2 1 0 -1
BITMAP
80
ENDCHAR
STARTCHAR bullet
ENCODING 149
SWIDTH 960 0
DWIDTH 2 0
BBX 2 1 0 -1
BITMAP
80
ENDCHAR
STARTCHAR endash
ENCODING 150
SWIDTH 960 0
DWIDTH 2 0
BBX 2 2 0 -1
BITMAP
80
80
ENDCHAR
STARTCHAR emdash
ENCODING 151
SWIDTH 960 0
DWIDTH 2 0
BBX 2 1 0 -1
BITMAP
80
ENDCHAR
STARTCHAR sterling
ENCODING 152
SWIDTH 960 0
DWIDTH 2 0
BBX 2 1 0 -1
BITMAP
80
ENDCHAR
STARTCHAR periodcentered
ENCODING 153
SWIDTH 960 0
DWIDTH 2 0
BBX 2 1 0 -1
BITMAP
80
ENDCHAR
STARTCHAR afii10106
ENCODING 154
SWIDTH 960 0
DWIDTH 2 0
BBX 0 0 0 0
BITMAP
ENDCHAR
STARTCHAR guilsinglright
ENCODING 155
SWIDTH 960 0
DWIDTH 2 0
BBX 2 2 0 -1
BITMAP
80
80
ENDCHAR
STARTCHAR afii10107
ENCODING 156
SWIDTH 960 0
DWIDTH 2 0
BBX 2 1 0 -1
BITMAP
80
ENDCHAR
STARTCHAR afii10109
ENCODING 157
SWIDTH 960 0
DWIDTH 2 0
BBX 2 1 0 -1
BITMAP
80
ENDCHAR
STARTCHAR afii10108
ENCODING 158
SWIDTH 960 0
DWIDTH 2 0
BBX 2 1 0 -1
BITMAP
80
ENDCHAR
STARTCHAR afii10193
ENCODING 159
SWIDTH 960 0
DWIDTH 2 0
BBX 2 1 0 -1
BITMAP
80
ENDCHAR
STARTCHAR space
ENCODING 160
SWIDTH 960 0
DWIDTH 2 0
BBX 2 1 0 -1
BITMAP
80
ENDCHAR
STARTCHAR afii10196
ENCODING 161
SWIDTH 960 0
DWIDTH 2 0
BBX 2 2 0 -1
BITMAP
80
80
ENDCHAR
STARTCHAR afii10194
ENCODING 162
SWIDTH 960 0
DWIDTH 2 0
BBX 2 1 0 -1
BITMAP
80
ENDCHAR
STARTCHAR afii10071
ENCODING 163
SWIDTH 960 0
DWIDTH 2 0
BBX 0 0 0 0
BITMAP
ENDCHAR
STARTCHAR afii10101
ENCODING 164
SWIDTH 960 0
DWIDTH 2 0
BBX 2 1 0 -1
BITMAP
80
ENDCHAR
STARTCHAR afii10102
ENCODING 165
SWIDTH 960 0
DWIDTH 2 0
BBX 2 1 0 -1
BITMAP
80
ENDCHAR
STARTCHAR afii10103
ENCODING 166
SWIDTH 960 0
DWIDTH 2 0
BBX 2 1 0 -1
BITMAP
80
ENDCHAR
STARTCHAR afii10104
ENCODING 167
SWIDTH 960 0
DWIDTH 2 0
BBX 2 1 0 -1
BITMAP
80
ENDCHAR
STARTCHAR afii10105
ENCODING 168
SWIDTH 960 0
DWIDTH 2 0
BBX 2 1 0 -1
BITMAP
80
ENDCHAR
STARTCHAR registered
ENCODING 169
SWIDTH 960 0
DWIDTH 2 0
BBX 2 1 0 -1
BITMAP
80
ENDCHAR
STARTCHAR uni0471
ENCODING 170
SWIDTH 960 0
DWIDTH 2 0
BBX 2 1 0 -1
BITMAP
80
ENDCHAR
STARTCHAR guillemotleft
ENCODING 171
SWIDTH 960 0
DWIDTH 2 0
BBX 2 1 0 -1
BITMAP
80
ENDCHAR
STARTCHAR afii10195
ENCODING 172
SWIDTH 960 0
DWIDTH 2 0
BBX 2 1 0 -1
BITMAP
80
ENDCHAR
STARTCHAR afii10098
ENCODING 173
SWIDTH 960 0
DWIDTH 2 0
BBX 2 1 0 -1
BITMAP
80
ENDCHAR
STARTCHAR afii10110
ENCODING 174
SWIDTH 960 0
DWIDTH 2 0
BBX 2 1 0 -1
BITMAP
80
ENDCHAR
STARTCHAR acute
ENCODING 175
SWIDTH 960 0
DWIDTH 2 0
BBX 2 2 0 -1
BITMAP
80
80
ENDCHAR
STARTCHAR degree
ENCODING 176
SWIDTH 960 0
DWIDTH 2 0
BBX 2 2 0 -1
BITMAP
80
80
ENDCHAR
STARTCHAR afii10148
ENCODING 177
SWIDTH 960 0
DWIDTH 2 0
BBX 2 2 0 -1
BITMAP
80
80
ENDCHAR
STARTCHAR afii10146
ENCODING 178
SWIDTH 960 0
DWIDTH 2 0
BBX 2 2 0 -1
BITMAP
80
80
ENDCHAR
STARTCHAR afii10023
ENCODING 179
SWIDTH 960 0
DWIDTH 2 0
BBX 2 2 0 -1
BITMAP
80
80
ENDCHAR
STARTCHAR afii10053
ENCODING 180
SWIDTH 960 0
DWIDTH 2 0
BBX 2 2 0 -1
BITMAP
80
80
ENDCHAR
STARTCHAR afii10054
ENCODING 181
SWIDTH 960 0
DWIDTH 2 0
BBX 2 2 0 -1
BITMAP
80
80
ENDCHAR
STARTCHAR afii10055
ENCODING 182
SWIDTH 960 0
DWIDTH 2 0
BBX 2 1 0 -1
BITMAP
80
ENDCHAR
STARTCHAR afii10056
ENCODING 183
SWIDTH 960 0
DWIDTH 2 0
BBX 2 1 0 -1
BITMAP
80
ENDCHAR
STARTCHAR afii10057
ENCODING 184
SWIDTH 960 0
DWIDTH 2 0
BBX 2 1 0 -1
BITMAP
80
ENDCHAR
STARTCHAR afii61352
ENCODING 185
SWIDTH 960 0
DWIDTH 2 0
BBX 2 1 0 -1
BITMAP
80
ENDCHAR
STARTCHAR uni0470
ENCODING 186
SWIDTH 960 0
DWIDTH 2 0
BBX 2 1 0 -1
BITMAP
80
ENDCHAR
STARTCHAR guillemotright
ENCODING 187
SWIDTH 960 0
DWIDTH 2 0
BBX 2 1 0 -1
BITMAP
80
ENDCHAR
STARTCHAR afii10147
ENCODING 188
SWIDTH 960 0
DWIDTH 2 0
BBX 2 2 0 -1
BITMAP
80
80
ENDCHAR
STARTCHAR afii10050
ENCODING 189
SWIDTH 960 0
DWIDTH 2 0
BBX 2 2 0 -1
BITMAP
80
80
ENDCHAR
STARTCHAR afii10062
ENCODING 190
SWIDTH 960 0
DWIDTH 2 0
BBX 2 2 0 -1
BITMAP
80
80
ENDCHAR
STARTCHAR copyright
ENCODING 191
SWIDTH 960 0
DWIDTH 2 0
BBX 0 0 0 0
BITMAP
ENDCHAR
STARTCHAR afii10096
ENCODING 192
SWIDTH 960 0
DWIDTH 2 0
BBX 2 1 0 -1
BITMAP
80
ENDCHAR
STARTCHAR afii10065
ENCODING 193
SWIDTH 960 0
DWIDTH 2 0
BBX 2 1 0 -1
BITMAP
80
ENDCHAR
STARTCHAR afii10066
ENCODING 194
SWIDTH 960 0
DWIDTH 2 0
BBX 2 1 0 -1
BITMAP
80
ENDCHAR
STARTCHAR afii10088
ENCODING 195
SWIDTH 960 0
DWIDTH 2 0
BBX 2 1 0 -1
BITMAP
80
ENDCHAR
STARTCHAR afii10069
ENCODING 196
SWIDTH 960 0
DWIDTH 2 0
BBX 2 1 0 -1
BITMAP
80
ENDCHAR
STARTCHAR afii10070
ENCODING 197
SWIDTH 960 0
DWIDTH 2 0
BBX 0 0 0 0
BITMAP
ENDCHAR
STARTCHAR afii10086
ENCODING 198
SWIDTH 960 0
DWIDTH 2 0
BBX 2 1 0 -1
BITMAP
80
ENDCHAR
STARTCHAR afii10068
ENCODING 199
SWIDTH 960 0
DWIDTH 2 0
BBX 2 1 0 -1
BITMAP
80
ENDCHAR
STARTCHAR afii10087
ENCODING 200
SWIDTH 960 0
DWIDTH 2 0
BBX 2 1 0 -1
BITMAP
80
ENDCHAR
STARTCHAR afii10074
ENCODING 201
SWIDTH 960 0
DWIDTH 2 0
BBX 2 1 0 -1
BITMAP
80
ENDCHAR
STARTCHAR afii10075
ENCODING 202
SWIDTH 960 0
DWIDTH 2 0
BBX 2 1 0 -1
BITMAP
80
ENDCHAR
STARTCHAR afii10076
ENCODING 203
SWIDTH 960 0
DWIDTH 2 0
BBX 2 1 0 -1
BITMAP
80
ENDCHAR
STARTCHAR afii10077
ENCODING 204
SWIDTH 960 0
DWIDTH 2 0
BBX 2 1 0 -1
BITMAP
80
ENDCHAR
STARTCHAR afii10078
ENCODING 205
SWIDTH 960 0
DWIDTH 2 0
BBX 2 1 0 -1
BITMAP
80
ENDCHAR
STARTCHAR afii10079
ENCODING 206
SWIDTH 960 0
DWIDTH 2 0
BBX 2 1 0 -1
BITMAP
80
ENDCHAR
STARTCHAR afii10080
ENCODING 207
SWIDTH 960 0
DWIDTH 2 0
BBX 0 0 0 0
BITMAP
ENDCHAR
STARTCHAR afii10081
ENCODING 208
SWIDTH 960 0
DWIDTH 2 0
BBX 2 1 0 -1
BITMAP
80
ENDCHAR
STARTCHAR afii10097
ENCODING 209
SWIDTH 960 0
DWIDTH 2 0
BBX 2 1 0 -1
BITMAP
80
ENDCHAR
STARTCHAR afii10082
ENCODING 210
SWIDTH 960 0
DWIDTH 2 0
BBX 2 1 0 -1
BITMAP
80
ENDCHAR
STARTCHAR afii10083
ENCODING 211
SWIDTH 960 0
DWIDTH 2 0
BBX 2 1 0 -1
BITMAP
80
ENDCHAR
STARTCHAR afii10084
ENCODING 212
SWIDTH 960 0
DWIDTH 2 0
BBX 2 1 0 -1
BITMAP
80
ENDCHAR
STARTCHAR afii10085
ENCODING 213
SWIDTH 960 0
DWIDTH 2 0
BBX 2 1 0 -1
BITMAP
80
ENDCHAR
STARTCHAR afii10072
ENCODING 214
SWIDTH 960 0
DWIDTH 2 0
BBX 2 1 0 -1
BITMAP
80
ENDCHAR
STARTCHAR afii10067
ENCODING 215
SWIDTH 960 0
DWIDTH 2 0
BBX 2 1 0 -1
BITMAP
80
ENDCHAR
STARTCHAR afii10094
ENCODING 216
SWIDTH 960 0
DWIDTH 2 0
BBX 2 1 0 -1
BITMAP
80
ENDCHAR
STARTCHAR afii10093
ENCODING 217
SWIDTH 960 0
DWIDTH 2 0
BBX 2 1 0 -1
BITMAP
80
ENDCHAR
STARTCHAR afii10073
ENCODING 218
SWIDTH 960 0
DWIDTH 2 0
BBX 2 1 0 -1
BITMAP
80
ENDCHAR
STARTCHAR afii10090
ENCODING 219
SWIDTH 960 0
DWIDTH 2 0
BBX 2 1 0 -1
BITMAP
80
ENDCHAR
STARTCHAR afii10095
ENCODING 220
SWIDTH 960 0
DWIDTH 2 0
BBX 2 1 0 -1
BITMAP
80
ENDCHAR
STARTCHAR afii10091
ENCODING 221
SWIDTH 960 0
DWIDTH 2 0
BBX 2 1 0 -1
BITMAP
80
ENDCHAR
STARTCHAR afii10089
ENCODING 222
SWIDTH 960 0
DWIDTH 2 0
BBX 2 1 0 -1
BITMAP
80
ENDCHAR
STARTCHAR afii10092
ENCODING 223
SWIDTH 960 0
DWIDTH 2 0
BBX 2 1 0 -1
BITMAP
80
ENDCHAR
STARTCHAR afii10048
ENCODING 224
SWIDTH 960 0
DWIDTH 2 0
BBX 2 2 0 -1
BITMAP
80
80
ENDCHAR
STARTCHAR afii10017
ENCODING 225
SWIDTH 960 0
DWIDTH 2 0
BBX 2 2 0 -1
BITMAP
80
80
ENDCHAR
STARTCHAR afii10018
ENCODING 226
SWIDTH 960 0
DWIDTH 2 0
BBX 2 2 0 -1
BITMAP
80
80
ENDCHAR
STARTCHAR afii10040
ENCODING 227
SWIDTH 960 0
DWIDTH 2 0
BBX 2 2 0 -1
BITMAP
80
80
ENDCHAR
STARTCHAR afii10021
ENCODING 228
SWIDTH 960 0
DWIDTH 2 0
BBX 2 2 0 -1
BITMAP
80
80
ENDCHAR
STARTCHAR afii10022
ENCODING 229
SWIDTH 960 0
DWIDTH 2 0
BBX 2 2 0 -1
BITMAP
80
80
ENDCHAR
STARTCHAR afii10038
ENCODING 230
SWIDTH 960 0
DWIDTH 2 0
BBX 2 2 0 -1
BITMAP
80
80
ENDCHAR
STARTCHAR afii10020
ENCODING 231
SWIDTH 960 0
DWIDTH 2 0
BBX 2 2 0 -1
BITMAP
80
80
ENDCHAR
STARTCHAR afii10039
ENCODING 232
SWIDTH 960 0
DWIDTH 2 0
BBX 2 2 0 -1
BITMAP
80
80
ENDCHAR
STARTCHAR afii10026
ENCODING 233
SWIDTH 960 0
DWIDTH 2 0
BBX 2 2 0 -1
BITMAP
80
80
ENDCHAR
STARTCHAR afii10027
ENCODING 234
SWIDTH 960 0
DWIDTH 2 0
BBX 2 2 0 -1
BITMAP
80
80
ENDCHAR
STARTCHAR afii10028
ENCODING 235
SWIDTH 960 0
DWIDTH 2 0
BBX 2 2 0 -1
BITMAP
80
80
ENDCHAR
STARTCHAR afii10029
ENCODING 236
SWIDTH 960 0
DWIDTH 2 0
BBX 2 2 0 -1
BITMAP
80
80
ENDCHAR
STARTCHAR afii10030
ENCODING 237
SWIDTH 960 0
DWIDTH 2 0
BBX 2 2 0 -1
BITMAP
80
80
ENDCHAR
STARTCHAR afii10031
ENCODING 238
SWIDTH 960 0
DWIDTH 2 0
BBX 2 2 0 -1
BITMAP
80
80
ENDCHAR
STARTCHAR afii10032
ENCODING 239
SWIDTH 960 0
DWIDTH 2 0
BBX 2 2 0 -1
BITMAP
80
80
ENDCHAR
STARTCHAR afii10033
ENCODING 240
SWIDTH 960 0
DWIDTH 2 0
BBX 2 2 0 -1
BITMAP
80
80
ENDCHAR
STARTCHAR afii10049
ENCODING 241
SWIDTH 960 0
DWIDTH 2 0
BBX 2 2 0 -1
BITMAP
80
80
ENDCHAR
STARTCHAR afii10034
ENCODING 242
SWIDTH 960 0
DWIDTH 2 0
BBX 2 2 0 -1
BITMAP
80
80
ENDCHAR
STARTCHAR afii10035
ENCODING 243
SWIDTH 960 0
DWIDTH 2 0
BBX 2 2 0 -1
BITMAP
80
80
ENDCHAR
STARTCHAR afii10036
ENCODING 244
SWIDTH 960 0
DWIDTH 2 0
BBX 2 2 0 -1
BITMAP
80
80
ENDCHAR
STARTCHAR afii10037
ENCODING 245
SWIDTH 960 0
DWIDTH 2 0
BBX 2 2 0 -1
BITMAP
80
80
ENDCHAR
STARTCHAR afii10024
ENCODING 246
SWIDTH 960 0
DWIDTH 2 0
BBX 2 2 0 -1
BITMAP
80
80
ENDCHAR
STARTCHAR afii10019
ENCODING 247
SWIDTH 960 0
DWIDTH 2 0
BBX 2 2 0 -1
BITMAP
80
80
ENDCHAR
STARTCHAR afii10046
ENCODING 248
SWIDTH 960 0
DWIDTH 2 0
BBX 2 2 0 -1
BITMAP
80
80
ENDCHAR
STARTCHAR afii10045
ENCODING 249
SWIDTH 960 0
DWIDTH 2 0
BBX 2 2 0 -1
BITMAP
80
80
ENDCHAR
STARTCHAR afii10025
ENCODING 250
SWIDTH 960 0
DWIDTH 2 0
BBX 2 2 0 -1
BITMAP
80
80
ENDCHAR
STARTCHAR afii10042
ENCODING 251
SWIDTH 960 0
DWIDTH 2 0
BBX 2 2 0 -1
BITMAP
80
80
ENDCHAR
STARTCHAR afii10047
ENCODING 252
SWIDTH 960 0
DWIDTH 2 0
BBX 2 2 0 -1
BITMAP
80
80
ENDCHAR
STARTCHAR afii10043
ENCODING 253
SWIDTH 960 0
DWIDTH 2 0
BBX 2 2 0 -1
BITMAP
80
80
ENDCHAR
STARTCHAR afii10041
ENCODING 254
SWIDTH 960 0
DWIDTH 2 0
BBX 2 2 0 -1
BITMAP
80
80
ENDCHAR
STARTCHAR afii10044
ENCODING 255
SWIDTH 960 0
DWIDTH 2 0
BBX 2 2 0 -1
BITMAP
80
80
ENDCHAR
ENDFONT
